<?xml version="1.0" encoding="UTF-8" standalone="no"?>
<svg
   xmlns:dc="http://purl.org/dc/elements/1.1/"
   xmlns:cc="http://creativecommons.org/ns#"
   xmlns:rdf="http://www.w3.org/1999/02/22-rdf-syntax-ns#"
   xmlns:svg="http://www.w3.org/2000/svg"
   xmlns="http://www.w3.org/2000/svg"
   xmlns:xlink="http://www.w3.org/1999/xlink"
   xmlns:sodipodi="http://sodipodi.sourceforge.net/DTD/sodipodi-0.dtd"
   xmlns:inkscape="http://www.inkscape.org/namespaces/inkscape"
   id="e1e18c23-21c5-4ba7-8e43-9b52646246a3"
   data-name="Layer 1"
   width="524.88"
   height="524.88"
   viewBox="0 0 524.88 524.88001"
   version="1.1"
   sodipodi:docname="loader.svg"
   inkscape:version="0.92.4 (unknown)">
  <metadata
     id="metadata618">
    <rdf:RDF>
      <cc:Work
         rdf:about="">
        <dc:format>image/svg+xml</dc:format>
        <dc:type
           rdf:resource="http://purl.org/dc/dcmitype/StillImage" />
        <dc:title>movie night</dc:title>
      </cc:Work>
    </rdf:RDF>
  </metadata>
  <sodipodi:namedview
     pagecolor="#ffffff"
     bordercolor="#666666"
     borderopacity="1"
     objecttolerance="10"
     gridtolerance="10"
     guidetolerance="10"
     inkscape:pageopacity="0"
     inkscape:pageshadow="2"
     inkscape:window-width="1366"
     inkscape:window-height="715"
     id="namedview616"
     showgrid="false"
     inkscape:zoom="0.23444975"
     inkscape:cx="-876.16394"
     inkscape:cy="-5.9623608"
     inkscape:window-x="0"
     inkscape:window-y="0"
     inkscape:window-maximized="1"
     inkscape:current-layer="e1e18c23-21c5-4ba7-8e43-9b52646246a3" />
  <defs
     id="defs99">
    <linearGradient
       id="3ccf89fc-b235-48c4-a7b3-ec74ccda02b2"
       x1="727.96002"
       y1="757.20001"
       x2="727.96002"
       y2="618.07001"
       gradientUnits="userSpaceOnUse">
      <stop
         offset="0"
         stop-color="gray"
         stop-opacity="0.25"
         id="stop2" />
      <stop
         offset="0.54"
         stop-color="gray"
         stop-opacity="0.12"
         id="stop4" />
      <stop
         offset="1"
         stop-color="gray"
         stop-opacity="0.1"
         id="stop6" />
    </linearGradient>
    <linearGradient
       id="3d0c0a2e-ebd5-4792-8384-d506b1409550"
       x1="463.13"
       y1="554.15997"
       x2="463.13"
       y2="196.77"
       xlink:href="#3ccf89fc-b235-48c4-a7b3-ec74ccda02b2"
       gradientTransform="translate(-200.69,-113.03)" />
    <linearGradient
       id="cfc67d4e-9240-408d-ae53-2d0cbcb1d112"
       x1="615.25"
       y1="738.75"
       x2="615.25"
       y2="213.88"
       xlink:href="#3ccf89fc-b235-48c4-a7b3-ec74ccda02b2"
       gradientTransform="translate(-352.81,-213.88)" />
    <linearGradient
       id="55618a58-b994-4cf3-bc33-e350414592a2"
       x1="137.3"
       y1="442.59"
       x2="137.3"
       y2="412.32001"
       xlink:href="#3ccf89fc-b235-48c4-a7b3-ec74ccda02b2"
       gradientTransform="translate(0,-113.03)" />
    <linearGradient
       id="a62bac33-b4e8-4f63-988d-f7345c8676e6"
       x1="181.03"
       y1="442.59"
       x2="181.03"
       y2="412.32001"
       xlink:href="#3ccf89fc-b235-48c4-a7b3-ec74ccda02b2"
       gradientTransform="translate(0,-113.03)" />
    <linearGradient
       id="01b0c20f-63c0-4fa3-acca-bb5f9cdc7d47"
       x1="56.57"
       y1="442.59"
       x2="56.57"
       y2="412.32001"
       xlink:href="#3ccf89fc-b235-48c4-a7b3-ec74ccda02b2"
       gradientTransform="translate(0,-113.03)" />
    <linearGradient
       id="e792799f-2a16-4b5c-8db0-cb1aa0d2a23d"
       x1="113.76"
       y1="404.47"
       x2="113.76"
       y2="374.19"
       xlink:href="#3ccf89fc-b235-48c4-a7b3-ec74ccda02b2"
       gradientTransform="translate(0,-113.03)" />
    <linearGradient
       id="4900b58d-8dde-4024-9730-e3dd5ba623cc"
       x1="202.89999"
       y1="410.64001"
       x2="202.89999"
       y2="380.35999"
       xlink:href="#3ccf89fc-b235-48c4-a7b3-ec74ccda02b2"
       gradientTransform="translate(0,-113.03)" />
    <linearGradient
       id="8c5be7c8-2b17-4a1f-8c6e-c3983b864ee6"
       x1="181.03"
       y1="397.17999"
       x2="181.03"
       y2="366.91"
       xlink:href="#3ccf89fc-b235-48c4-a7b3-ec74ccda02b2"
       gradientTransform="translate(0,-113.03)" />
    <linearGradient
       id="d5b7eefc-9f3e-4b39-92f9-ccf9139cee39"
       x1="191.69"
       y1="429.14001"
       x2="191.69"
       y2="398.85999"
       xlink:href="#3ccf89fc-b235-48c4-a7b3-ec74ccda02b2"
       gradientTransform="translate(0,-113.03)" />
    <linearGradient
       id="c31766a7-9c9c-44b4-8ede-5888174e1f8a"
       x1="152.44"
       y1="404.47"
       x2="152.44"
       y2="374.19"
       xlink:href="#3ccf89fc-b235-48c4-a7b3-ec74ccda02b2"
       gradientTransform="translate(0,-113.03)" />
    <linearGradient
       id="4348c26f-db85-4738-947f-fb5f7cbdce4b"
       x1="150.75999"
       y1="361.85999"
       x2="150.75999"
       y2="331.59"
       xlink:href="#3ccf89fc-b235-48c4-a7b3-ec74ccda02b2"
       gradientTransform="translate(0,-113.03)" />
    <linearGradient
       id="66a2fc62-0231-470f-8d66-10fd6d934ae3"
       x1="225.32001"
       y1="383.73001"
       x2="225.32001"
       y2="353.45001"
       xlink:href="#3ccf89fc-b235-48c4-a7b3-ec74ccda02b2"
       gradientTransform="translate(0,-113.03)" />
    <linearGradient
       id="da71f962-9307-4dc4-b5fe-1d8a8f7784ac"
       x1="218.03999"
       y1="412.32001"
       x2="218.03999"
       y2="382.04001"
       xlink:href="#3ccf89fc-b235-48c4-a7b3-ec74ccda02b2"
       gradientTransform="translate(0,-113.03)" />
    <linearGradient
       id="1ef09f19-b93e-4b1d-bf2c-735162991b2b"
       x1="251.67"
       y1="406.70999"
       x2="251.67"
       y2="376.44"
       xlink:href="#3ccf89fc-b235-48c4-a7b3-ec74ccda02b2"
       gradientTransform="translate(0,-113.03)" />
    <linearGradient
       id="5c1ea6b8-5bc0-4af9-a2e3-6a873526abd3"
       x1="236.53999"
       y1="420.73001"
       x2="236.53999"
       y2="390.45001"
       xlink:href="#3ccf89fc-b235-48c4-a7b3-ec74ccda02b2"
       gradientTransform="translate(0,-113.03)" />
    <linearGradient
       id="30840ded-278f-4d73-abee-5ec61025ef00"
       x1="135.62"
       y1="383.73001"
       x2="135.62"
       y2="353.45001"
       xlink:href="#3ccf89fc-b235-48c4-a7b3-ec74ccda02b2"
       gradientTransform="translate(0,-113.03)" />
    <linearGradient
       id="640daeec-fe0d-4cc5-bfb0-7d2502bda475"
       x1="113.76"
       y1="440.91"
       x2="113.76"
       y2="410.64001"
       xlink:href="#3ccf89fc-b235-48c4-a7b3-ec74ccda02b2"
       gradientTransform="translate(0,-113.03)" />
    <linearGradient
       id="9ac0ede8-18c8-48c9-b5a7-91d4c442db44"
       x1="79.559998"
       y1="442.59"
       x2="79.559998"
       y2="412.32001"
       xlink:href="#3ccf89fc-b235-48c4-a7b3-ec74ccda02b2"
       gradientTransform="translate(0,-113.03)" />
    <linearGradient
       id="9b6ad9db-95ba-4532-a5ad-4f7024867a5b"
       x1="96.940002"
       y1="433.06"
       x2="96.940002"
       y2="402.79001"
       xlink:href="#3ccf89fc-b235-48c4-a7b3-ec74ccda02b2"
       gradientTransform="translate(0,-113.03)" />
    <linearGradient
       id="8d86ace4-e95e-473e-bb5a-5a267cbf00d9"
       x1="170.94"
       y1="416.23999"
       x2="170.94"
       y2="385.97"
       xlink:href="#3ccf89fc-b235-48c4-a7b3-ec74ccda02b2"
       gradientTransform="translate(0,-113.03)" />
    <linearGradient
       id="90785fb7-aff9-4894-accc-b6020db5a58e"
       x1="170.94"
       y1="380.35999"
       x2="170.94"
       y2="350.09"
       xlink:href="#3ccf89fc-b235-48c4-a7b3-ec74ccda02b2"
       gradientTransform="translate(0,-113.03)" />
    <linearGradient
       id="fbadd24b-c03d-437f-bbb8-4d8b289ce3da"
       x1="187.75999"
       y1="408.95001"
       x2="187.75999"
       y2="378.67999"
       xlink:href="#3ccf89fc-b235-48c4-a7b3-ec74ccda02b2"
       gradientTransform="translate(0,-113.03)" />
    <linearGradient
       id="2d033cbb-f20a-46be-baa8-652f77a00af9"
       x1="172.62"
       y1="351.76999"
       x2="172.62"
       y2="321.48999"
       xlink:href="#3ccf89fc-b235-48c4-a7b3-ec74ccda02b2"
       gradientTransform="translate(0,-113.03)" />
    <linearGradient
       id="3423a687-c1fa-4574-8890-e009c1c8d223"
       x1="175.99001"
       y1="366.91"
       x2="175.99001"
       y2="336.63"
       xlink:href="#3ccf89fc-b235-48c4-a7b3-ec74ccda02b2"
       gradientTransform="translate(0,-113.03)" />
    <linearGradient
       id="aed7bf24-752c-4d72-bb46-8eee374d80ce"
       x1="193.92999"
       y1="377"
       x2="193.92999"
       y2="346.72"
       xlink:href="#3ccf89fc-b235-48c4-a7b3-ec74ccda02b2"
       gradientTransform="translate(0,-113.03)" />
    <linearGradient
       id="74b2a53a-bb8d-4817-af0f-547fba41d21c"
       x1="212.42999"
       y1="374.19"
       x2="212.42999"
       y2="343.92001"
       xlink:href="#3ccf89fc-b235-48c4-a7b3-ec74ccda02b2"
       gradientTransform="translate(0,-113.03)" />
    <linearGradient
       id="8b75dab9-0f62-4d02-bfac-491ded2e8f2f"
       x1="207.38"
       y1="389.32999"
       x2="207.38"
       y2="359.06"
       xlink:href="#3ccf89fc-b235-48c4-a7b3-ec74ccda02b2"
       gradientTransform="translate(0,-113.03)" />
    <linearGradient
       id="d7f4ebc6-3fcc-4c72-a8ed-0cc210982a88"
       x1="144.03"
       y1="369.70999"
       x2="144.03"
       y2="339.44"
       xlink:href="#3ccf89fc-b235-48c4-a7b3-ec74ccda02b2"
       gradientTransform="translate(0,-113.03)" />
    <linearGradient
       id="6c583912-91b6-4898-86fb-e2ec9a4e0915"
       x1="100.3"
       y1="415.67999"
       x2="100.3"
       y2="385.41"
       xlink:href="#3ccf89fc-b235-48c4-a7b3-ec74ccda02b2"
       gradientTransform="translate(0,-113.03)" />
    <linearGradient
       id="57016bda-f426-4e23-aab0-98541199fe77"
       x1="126.65"
       y1="390.45001"
       x2="126.65"
       y2="360.17999"
       xlink:href="#3ccf89fc-b235-48c4-a7b3-ec74ccda02b2"
       gradientTransform="translate(0,-113.03)" />
    <linearGradient
       id="45131267-4006-4d03-89e8-6cf31dacf3a7"
       x1="72.830002"
       y1="433.62"
       x2="72.830002"
       y2="403.35001"
       xlink:href="#3ccf89fc-b235-48c4-a7b3-ec74ccda02b2"
       gradientTransform="translate(0,-113.03)" />
    <linearGradient
       id="654e43e5-b13a-4b15-8a9f-95a325fe6551"
       x1="218.03999"
       y1="421.85001"
       x2="218.03999"
       y2="391.57001"
       xlink:href="#3ccf89fc-b235-48c4-a7b3-ec74ccda02b2"
       gradientTransform="translate(0,-113.03)" />
    <linearGradient
       id="5100e24e-f82a-4c67-8efd-1fb0621d1452"
       x1="150.2"
       y1="336.63"
       x2="150.2"
       y2="306.35999"
       xlink:href="#3ccf89fc-b235-48c4-a7b3-ec74ccda02b2"
       gradientTransform="translate(0,-113.03)" />
    <linearGradient
       id="98eaa204-732d-48bb-8eba-68176b6cb80d"
       x1="122.73"
       y1="371.39001"
       x2="122.73"
       y2="341.12"
       xlink:href="#3ccf89fc-b235-48c4-a7b3-ec74ccda02b2"
       gradientTransform="translate(0,-113.03)" />
    <linearGradient
       id="47bc87d9-d95f-4520-8d49-0141d8e84b1f"
       x1="100.86"
       y1="397.17999"
       x2="100.86"
       y2="366.91"
       xlink:href="#3ccf89fc-b235-48c4-a7b3-ec74ccda02b2"
       gradientTransform="translate(0,-113.03)" />
    <linearGradient
       id="ad8ea935-4f51-4121-a461-22ce9308a26b"
       x1="116.56"
       y1="425.76999"
       x2="116.56"
       y2="395.5"
       xlink:href="#3ccf89fc-b235-48c4-a7b3-ec74ccda02b2"
       gradientTransform="translate(0,-113.03)" />
    <linearGradient
       id="4b3fdb4f-0fba-4558-ae10-fa0899fde927"
       x1="137.86"
       y1="406.70999"
       x2="137.86"
       y2="376.44"
       xlink:href="#3ccf89fc-b235-48c4-a7b3-ec74ccda02b2"
       gradientTransform="translate(0,-113.03)" />
    <linearGradient
       id="9c82f46e-67f9-4854-a913-e80fd40b4505"
       x1="149.08"
       y1="425.76999"
       x2="149.08"
       y2="395.5"
       xlink:href="#3ccf89fc-b235-48c4-a7b3-ec74ccda02b2"
       gradientTransform="translate(0,-113.03)" />
    <linearGradient
       id="94b4005c-0a99-4511-8f26-3ae56047de0a"
       x1="265.13"
       y1="442.59"
       x2="265.13"
       y2="412.32001"
       xlink:href="#3ccf89fc-b235-48c4-a7b3-ec74ccda02b2"
       gradientTransform="translate(0,-113.03)" />
    <linearGradient
       id="b0fffae2-bb48-43ea-8ac9-db11dbc5ea9d"
       x1="243.82001"
       y1="439.23001"
       x2="243.82001"
       y2="408.95001"
       xlink:href="#3ccf89fc-b235-48c4-a7b3-ec74ccda02b2"
       gradientTransform="translate(0,-113.03)" />
    <linearGradient
       id="cf6dd8e8-cefc-4e0a-9d9b-373f21e110d7"
       x1="202.89999"
       y1="440.91"
       x2="202.89999"
       y2="410.64001"
       xlink:href="#3ccf89fc-b235-48c4-a7b3-ec74ccda02b2"
       gradientTransform="translate(0,-113.03)" />
    <linearGradient
       id="6678c91d-2717-425d-bef9-c555f736cbe7"
       x1="157.49001"
       y1="442.59"
       x2="157.49001"
       y2="412.32001"
       xlink:href="#3ccf89fc-b235-48c4-a7b3-ec74ccda02b2"
       gradientTransform="translate(0,-113.03)" />
    <linearGradient
       id="5297df59-5499-4111-a486-7e1a06cfabac"
       x1="153"
       y1="382.04001"
       x2="153"
       y2="351.76999"
       xlink:href="#3ccf89fc-b235-48c4-a7b3-ec74ccda02b2"
       gradientTransform="translate(0,-113.03)" />
    <linearGradient
       id="059442aa-5aeb-41b7-ba5d-abf1ca3bc974"
       x1="168.14"
       y1="401.10999"
       x2="168.14"
       y2="370.82999"
       xlink:href="#3ccf89fc-b235-48c4-a7b3-ec74ccda02b2"
       gradientTransform="translate(0,-113.03)" />
    <linearGradient
       id="3d4d63e0-fb61-411a-91fb-e2ee16a6c4e8"
       x1="142.91"
       y1="354.57001"
       x2="142.91"
       y2="324.29999"
       xlink:href="#3ccf89fc-b235-48c4-a7b3-ec74ccda02b2"
       gradientTransform="translate(0,-113.03)" />
    <linearGradient
       id="7c9762fe-252f-458c-96ed-c5fe01f53e6d"
       x1="159.73"
       y1="356.25"
       x2="159.73"
       y2="325.98001"
       xlink:href="#3ccf89fc-b235-48c4-a7b3-ec74ccda02b2"
       gradientTransform="translate(0,-113.03)" />
    <linearGradient
       id="e399a398-50f6-464e-a885-e2a5124368b6"
       x1="187.75999"
       y1="364.10001"
       x2="187.75999"
       y2="333.82999"
       xlink:href="#3ccf89fc-b235-48c4-a7b3-ec74ccda02b2"
       gradientTransform="translate(0,-113.03)" />
    <linearGradient
       id="94c95248-6c1c-459f-b349-9d8070fcbbf6"
       x1="112.07"
       y1="388.76999"
       x2="112.07"
       y2="358.5"
       xlink:href="#3ccf89fc-b235-48c4-a7b3-ec74ccda02b2"
       gradientTransform="translate(0,-113.03)" />
    <linearGradient
       id="be7c7a75-c839-44e3-bb95-11462ca995f7"
       x1="122.73"
       y1="408.39001"
       x2="122.73"
       y2="378.12"
       xlink:href="#3ccf89fc-b235-48c4-a7b3-ec74ccda02b2"
       gradientTransform="translate(0,-113.03)" />
    <linearGradient
       id="1c025a95-16c1-47b2-af84-f4fd4588f3a8"
       x1="130.02"
       y1="431.38"
       x2="130.02"
       y2="401.10999"
       xlink:href="#3ccf89fc-b235-48c4-a7b3-ec74ccda02b2"
       gradientTransform="translate(0,-113.03)" />
    <linearGradient
       id="658db19d-e937-4a58-9320-b67d9fa7c9d4"
       x1="172.62"
       y1="424.09"
       x2="172.62"
       y2="393.82001"
       xlink:href="#3ccf89fc-b235-48c4-a7b3-ec74ccda02b2"
       gradientTransform="translate(0,-113.03)" />
    <linearGradient
       id="0245e264-ac34-4cd8-966e-2281cb490f4d"
       x1="216.35001"
       y1="410.64001"
       x2="216.35001"
       y2="380.35999"
       xlink:href="#3ccf89fc-b235-48c4-a7b3-ec74ccda02b2"
       gradientTransform="translate(0,-113.03)" />
    <linearGradient
       id="a8f660ac-f157-41d9-8717-6af001822d1a"
       x1="230.37"
       y1="398.85999"
       x2="230.37"
       y2="368.59"
       xlink:href="#3ccf89fc-b235-48c4-a7b3-ec74ccda02b2"
       gradientTransform="translate(0,-113.03)" />
    <linearGradient
       id="2cdabf00-84c0-4b21-a27b-03dfa6b06df6"
       x1="252.23"
       y1="425.76999"
       x2="252.23"
       y2="395.5"
       xlink:href="#3ccf89fc-b235-48c4-a7b3-ec74ccda02b2"
       gradientTransform="translate(0,-113.03)" />
    <linearGradient
       id="70d16174-6305-4c7a-b913-022da8e4a220"
       x1="181.59"
       y1="444.26999"
       x2="181.59"
       y2="414"
       xlink:href="#3ccf89fc-b235-48c4-a7b3-ec74ccda02b2"
       gradientTransform="translate(0,-113.03)" />
    <linearGradient
       id="9a2bc465-fb6e-45e3-9715-3fb4637fc86b"
       x1="103.67"
       y1="437.54999"
       x2="103.67"
       y2="407.26999"
       xlink:href="#3ccf89fc-b235-48c4-a7b3-ec74ccda02b2"
       gradientTransform="translate(0,-113.03)" />
    <linearGradient
       id="0b09d010-e7df-434f-9178-cb9e8138f131"
       x1="81.800003"
       y1="417.92001"
       x2="81.800003"
       y2="387.64999"
       xlink:href="#3ccf89fc-b235-48c4-a7b3-ec74ccda02b2"
       gradientTransform="translate(0,-113.03)" />
    <linearGradient
       id="f1cdb18a-c771-4917-ac86-fbe766f55ee6"
       x1="110.39"
       y1="408.39001"
       x2="110.39"
       y2="378.12"
       xlink:href="#3ccf89fc-b235-48c4-a7b3-ec74ccda02b2"
       gradientTransform="translate(0,-113.03)" />
    <linearGradient
       id="3d3bbc5b-4d7c-45e9-b40c-05c49dd87298"
       x1="94.690002"
       y1="385.41"
       x2="94.690002"
       y2="355.13"
       xlink:href="#3ccf89fc-b235-48c4-a7b3-ec74ccda02b2"
       gradientTransform="translate(0,-113.03)" />
    <linearGradient
       id="50d3cbe8-c642-4d06-9147-8b3a8a66b0b8"
       x1="108.15"
       y1="364.10001"
       x2="108.15"
       y2="333.82999"
       xlink:href="#3ccf89fc-b235-48c4-a7b3-ec74ccda02b2"
       gradientTransform="translate(0,-113.03)" />
    <linearGradient
       id="68b00927-fbaa-4146-b5b0-462ab386aad4"
       x1="225.32001"
       y1="442.59"
       x2="225.32001"
       y2="412.32001"
       xlink:href="#3ccf89fc-b235-48c4-a7b3-ec74ccda02b2"
       gradientTransform="translate(0,-113.03)" />
    <linearGradient
       id="0f076225-1862-4162-b858-1281b651f875"
       x1="162.81"
       y1="677.5"
       x2="162.81"
       y2="427.45999"
       xlink:href="#3ccf89fc-b235-48c4-a7b3-ec74ccda02b2" />
    <linearGradient
       id="abf7e6f2-bcd0-4405-8985-f1e62f4c1e4c"
       x1="86.849998"
       y1="401.10999"
       x2="86.849998"
       y2="370.82999"
       xlink:href="#3ccf89fc-b235-48c4-a7b3-ec74ccda02b2"
       gradientTransform="translate(0,-113.03)" />
    <linearGradient
       id="d54eb898-f786-4f85-9a48-33b963b5d8b8"
       x1="124.97"
       y1="358.5"
       x2="124.97"
       y2="328.22"
       xlink:href="#3ccf89fc-b235-48c4-a7b3-ec74ccda02b2"
       gradientTransform="translate(0,-113.03)" />
    <linearGradient
       id="96aa09be-8ec1-4566-95c8-ce78961e7eb1"
       x1="71.709999"
       y1="424.09"
       x2="71.709999"
       y2="393.82001"
       xlink:href="#3ccf89fc-b235-48c4-a7b3-ec74ccda02b2"
       gradientTransform="translate(0,-113.03)" />
    <linearGradient
       id="4ab383be-6c91-44a3-82ed-3e1940113dba"
       x1="53.57"
       y1="321.26001"
       x2="53.57"
       y2="290.98001"
       xlink:href="#3ccf89fc-b235-48c4-a7b3-ec74ccda02b2"
       gradientTransform="translate(0,-113.03)" />
    <linearGradient
       id="b114d039-19d3-4273-96cd-721b3ffa56ca"
       x1="979.26001"
       y1="510.07001"
       x2="979.26001"
       y2="351.98001"
       xlink:href="#3ccf89fc-b235-48c4-a7b3-ec74ccda02b2" />
    <clipPath
       id="a19b45cf-fcb4-4c03-9939-acced4c0c67e"
       transform="translate(-152.12 -100.85)">
      <path
         id="57881ca8-e7c9-455e-98a0-adebd859a564"
         data-name="&lt;Clipping Path&gt;"
         d="m 1031.12,373.43 -6.77,-16.49 -90.27,37.06 a 11.15,11.15 0 0 0 -6.91,10.31 v 97.53 H 945 v -93.03 z"
         inkscape:connector-curvature="0"
         style="fill:#f2f2f2" />
    </clipPath>
    <linearGradient
       id="d0c5ed15-51fe-4852-891e-b0305d57f60c"
       x1="787.60999"
       y1="694.29999"
       x2="787.60999"
       y2="384"
       xlink:href="#3ccf89fc-b235-48c4-a7b3-ec74ccda02b2" />
    <linearGradient
       id="73a4f828-edd2-4e48-97bd-9bcb305196f0"
       x1="787.20001"
       y1="576.01001"
       x2="787.20001"
       y2="477.17001"
       gradientUnits="userSpaceOnUse">
      <stop
         offset="0"
         stop-opacity="0.12"
         id="stop79" />
      <stop
         offset="0.55"
         stop-opacity="0.09"
         id="stop81" />
      <stop
         offset="1"
         stop-opacity="0.02"
         id="stop83" />
    </linearGradient>
    <linearGradient
       id="a8b03343-4c5a-4436-8864-65c423c59246"
       x1="117.26"
       y1="234.50999"
       x2="117.26"
       y2="204.24001"
       xlink:href="#3ccf89fc-b235-48c4-a7b3-ec74ccda02b2"
       gradientTransform="translate(0,-113.03)" />
    <linearGradient
       id="69c2fe58-062f-467b-afb9-81a24de72d6c"
       x1="172.16"
       y1="168.63"
       x2="172.16"
       y2="138.35001"
       xlink:href="#3ccf89fc-b235-48c4-a7b3-ec74ccda02b2"
       gradientTransform="translate(0,-113.03)" />
    <linearGradient
       id="11536ec6-4cc6-47e7-92d7-710fd5bff50d"
       x1="278.67001"
       y1="310.28"
       x2="278.67001"
       y2="280"
       xlink:href="#3ccf89fc-b235-48c4-a7b3-ec74ccda02b2"
       gradientTransform="translate(0,-113.03)" />
    <linearGradient
       id="08e02247-7e66-482b-b68c-8243a28a41b2"
       x1="363.22"
       y1="417.89001"
       x2="363.22"
       y2="387.60999"
       xlink:href="#3ccf89fc-b235-48c4-a7b3-ec74ccda02b2"
       gradientTransform="translate(0,-113.03)" />
    <linearGradient
       id="c4f8377c-dae5-454f-b3f1-2b316ac317fc"
       x1="49.18"
       y1="680.32001"
       x2="49.18"
       y2="650.04999"
       xlink:href="#3ccf89fc-b235-48c4-a7b3-ec74ccda02b2"
       gradientTransform="translate(0,-113.03)" />
    <linearGradient
       id="c3564592-807d-4bae-b07e-cd7d41f54c08"
       x1="28.309999"
       y1="652.87"
       x2="28.309999"
       y2="622.59998"
       xlink:href="#3ccf89fc-b235-48c4-a7b3-ec74ccda02b2"
       gradientTransform="translate(0,-113.03)" />
    <linearGradient
       id="02e0d9b2-dd62-4bea-9309-8de5f110771b"
       x1="15.14"
       y1="504.63"
       x2="15.14"
       y2="474.35999"
       xlink:href="#3ccf89fc-b235-48c4-a7b3-ec74ccda02b2"
       gradientTransform="translate(0,-113.03)" />
    <linearGradient
       id="15613dbc-00f1-4fe8-8ae5-2fad0c90759c"
       x1="300.63"
       y1="668.23999"
       x2="300.63"
       y2="637.96997"
       xlink:href="#3ccf89fc-b235-48c4-a7b3-ec74ccda02b2"
       gradientTransform="translate(0,-113.03)" />
    <linearGradient
       id="f931e1d4-9cb1-419c-ad36-53d7f8c99488"
       x1="328.07999"
       y1="650.67999"
       x2="328.07999"
       y2="620.40002"
       xlink:href="#3ccf89fc-b235-48c4-a7b3-ec74ccda02b2"
       gradientTransform="translate(34.12245,-68.244284)" />
    <linearGradient
       id="80cee248-a86c-4263-9e87-b18be0896754"
       x1="331.38"
       y1="671.53998"
       x2="331.38"
       y2="641.26001"
       xlink:href="#3ccf89fc-b235-48c4-a7b3-ec74ccda02b2"
       gradientTransform="translate(0,-113.03)" />
    <linearGradient
       id="d6702938-2bc7-4b9e-8a2c-5c8674d68bcc"
       x1="274.28"
       y1="671.53998"
       x2="274.28"
       y2="641.26001"
       xlink:href="#3ccf89fc-b235-48c4-a7b3-ec74ccda02b2"
       gradientTransform="translate(0,-113.03)" />
    <linearGradient
       id="c3c2f947-8308-4e36-bb02-388a47ed335c"
       x1="759.60999"
       y1="142.75"
       x2="759.60999"
       y2="0"
       xlink:href="#3ccf89fc-b235-48c4-a7b3-ec74ccda02b2" />
    <linearGradient
       id="e103c76e-73c8-428f-b06b-eaa70735fb85"
       x1="770.44"
       y1="104.32"
       x2="770.44"
       y2="38.43"
       xlink:href="#73a4f828-edd2-4e48-97bd-9bcb305196f0" />
  </defs>
  <title
     id="title101">movie night</title>
  <circle
     cx="262.44"
     cy="262.44"
     r="178.7"
     id="circle107"
     style="fill:url(#3d0c0a2e-ebd5-4792-8384-d506b1409550)" />
  <circle
     cx="262.44"
     cy="262.44"
     r="171.23"
     id="circle109"
     style="fill:#6c63ff" />
  <path
     d="M 262.44,0 C 117.5,0 0,117.5 0,262.44 0,407.38 117.5,524.88 262.44,524.88 407.38,524.88 524.88,407.38 524.88,262.44 524.88,117.5 407.38,0 262.44,0 Z m 95.57,137.05 a 60.8,60.8 0 1 1 -22.26,83.07 60.8,60.8 0 0 1 22.26,-83.06 z M 166.87,387.82 a 60.8,60.8 0 1 1 22.25,-83.05 60.8,60.8 0 0 1 -22.25,83.05 z m 22.25,-167.7 a 60.8,60.8 0 1 1 -22.25,-83.05 60.8,60.8 0 0 1 22.25,83.05 z m 73.31,248.58 a 60.8,60.8 0 1 1 60.8,-60.8 60.8,60.8 0 0 1 -60.79,60.79 z M 223.96,259.36 a 38.48,38.48 0 1 1 38.48,38.48 38.48,38.48 0 0 1 -38.48,-38.48 z m 38.48,-81.58 a 60.8,60.8 0 1 1 60.8,-60.8 60.8,60.8 0 0 1 -60.8,60.8 z m 178.62,187.78 a 60.8,60.8 0 1 1 -22.25,-83.05 60.8,60.8 0 0 1 22.25,83.05 z"
     id="path111"
     inkscape:connector-curvature="0"
     style="fill:url(#cfc67d4e-9240-408d-ae53-2d0cbcb1d112)" />
  <path
     d="m 262.44,7.48 c -140.81,0 -255,114.15 -255,255 0,140.85 114.15,255 255,255 140.85,0 255,-114.15 255,-255 0,-140.85 -114.19,-255 -255,-255 z m 92.85,133.15 a 59.07,59.07 0 1 1 -21.62,80.69 59.07,59.07 0 0 1 21.61,-80.69 z m -185.7,243.62 a 59.07,59.07 0 1 1 21.6,-80.69 59.07,59.07 0 0 1 -21.6,80.69 z m 21.6,-162.94 a 59.07,59.07 0 1 1 -21.62,-80.69 59.07,59.07 0 0 1 21.62,80.69 z m 71.23,241.5 a 59.07,59.07 0 1 1 59.07,-59.07 59.07,59.07 0 0 1 -59.05,59.08 z M 225.05,259.45 a 37.38,37.38 0 1 1 37.38,37.38 37.38,37.38 0 0 1 -37.38,-37.38 z m 37.38,-79.25 a 59.07,59.07 0 1 1 59.07,-59.08 59.07,59.07 0 0 1 -59.06,59.07 z m 173.54,182.43 a 59.07,59.07 0 1 1 -21.62,-80.69 59.07,59.07 0 0 1 21.62,80.69 z"
     id="path113"
     inkscape:connector-curvature="0"
     style="fill:#e6e6e6" />
  <path
     d="m 24.68,277.39 c 0,-140.81 114.15,-255 255,-255 A 253.79,253.79 0 0 1 427.86,69.86 253.93,253.93 0 0 0 262.48,8.93 c -140.81,0 -255,114.15 -255,255 A 254.63,254.63 0 0 0 114.26,471.42 254.38,254.38 0 0 1 24.68,277.39 Z"
     id="path115"
     inkscape:connector-curvature="0"
     style="opacity:0.2;fill:#ffffff" />
  <circle
     cx="262.44"
     cy="259.44"
     r="42.990002"
     stroke-miterlimit="10"
     id="circle117"
     style="opacity:0.2;fill:none;stroke:#ffffff;stroke-width:13;stroke-miterlimit:10" />
  <g
     clip-path="url(#a19b45cf-fcb4-4c03-9939-acced4c0c67e)"
     id="g527"
     transform="translate(-200.69,-113.03)">
    <rect
       x="847.96002"
       y="238.17"
       width="19.440001"
       height="61.57"
       id="rect515"
       style="fill:#6c63ff" />
    <rect
       x="817.17999"
       y="251.13"
       width="19.440001"
       height="61.57"
       id="rect517"
       style="fill:#6c63ff" />
    <polygon
       points="806.64,303.79 792.87,307.84 787.2,242.22 806.64,242.22 "
       id="polygon519"
       style="fill:#6c63ff" />
    <rect
       x="929.59998"
       y="390.87"
       width="19.440001"
       height="61.57"
       transform="rotate(-90,812.83,447.29)"
       id="rect521"
       style="fill:#6c63ff" />
    <rect
       x="929.59998"
       y="417.60999"
       width="19.440001"
       height="61.57"
       transform="rotate(-90,812.835,474.025)"
       id="rect523"
       style="fill:#6c63ff" />
    <rect
       x="929.59998"
       y="444.34"
       width="19.440001"
       height="61.57"
       transform="rotate(-90,812.835,500.765)"
       id="rect525"
       style="fill:#6c63ff" />
  </g>
</svg>
